{"asset":{"generator":"glTF-Transform v4.0.2","version":"2.0","extras":{"author":"Semantic Creation (https://sketchfab.com/nepalvr360)","license":"CC-BY-4.0 (http://creativecommons.org/licenses/by/4.0/)","source":"https://sketchfab.com/3d-models/stone-tap-fountain-dhunge-dhara-with-algae-38aa9a9e585d4bcd956897b472165fd0","title":"Stone Tap Fountain (Dhunge Dhara) with Algae"}},"accessors":[{"type":"VEC3","componentType":5126,"count":2,"max":[1.5394999980926514,0.741907000541687,-0.3480930030345917],"min":[1.5389900207519531,0.7381330132484436,-0.45934900641441345],"bufferView":0,"byteOffset":0},{"type":"VEC2","componentType":5126,"count":2,"bufferView":0,"byteOffset":12},{"type":"SCALAR","componentType":5125,"count":2,"bufferView":1,"byteOffset":0},{"type":"SCALAR","componentType":5125,"count":30,"bufferView":1,"byteOffset":8},{"type":"SCALAR","componentType":5125,"count":94440,"bufferView":1,"byteOffset":128},{"type":"VEC3","componentType":5126,"count":30,"max":[1.801069974899292,0.9442880153656006,-0.8086349964141846],"min":[1.3897500038146973,0.5572299957275391,-0.8611299991607666],"bufferView":2,"byteOffset":0},{"type":"VEC3","componentType":5126,"count":30,"bufferView":2,"byteOffset":12},{"type":"VEC4","componentType":5126,"count":30,"bufferView":2,"byteOffset":24},{"type":"VEC2","componentType":5126,"count":30,"bufferView":2,"byteOffset":40},{"type":"VEC3","componentType":5126,"count":54510,"max":[6.959650039672852,8.250160217285156,1.007652997970581],"min":[-4.099440097808838,-3.732490062713623,-1.589938998222351],"bufferView":3,"byteOffset":0},{"type":"VEC3","componentType":5126,"count":54510,"bufferView":3,"byteOffset":12},{"type":"VEC4","componentType":5126,"count":54510,"bufferView":3,"byteOffset":24},{"type":"VEC2","componentType":5126,"count":54510,"bufferView":3,"byteOffset":40}],"bufferViews":[{"buffer":0,"byteOffset":0,"byteLength":40,"byteStride":20,"target":34962},{"buffer":0,"byteOffset":40,"byteLength":377888,"target":34963},{"buffer":0,"byteOffset":377928,"byteLength":1440,"byteStride":48,"target":34962},{"buffer":0,"byteOffset":379368,"byteLength":2616480,"byteStride":48,"target":34962}],"samplers":[{"magFilter":9729,"minFilter":9987,"wrapS":10497,"wrapT":10497}],"textures":[{"source":0,"sampler":0},{"source":1,"sampler":0}],"images":[{"mimeType":"image/jpeg","uri":"baseColor_1.jpg"},{"mimeType":"image/png","uri":"normal_1.png"}],"buffers":[{"uri":"scene-v2.bin","byteLength":2995848}],"materials":[{"name":"Default_OBJ","doubleSided":true,"pbrMetallicRoughness":{"roughnessFactor":0.6,"metallicFactor":0,"baseColorTexture":{"index":0}},"normalTexture":{"index":1},"extensions":{"KHR_materials_ior":{"ior":1000},"KHR_materials_specular":{"specularColorFactor":[0.05,0.05,0.05]}}}],"meshes":[{"name":"Object_0","primitives":[{"attributes":{"POSITION":0,"TEXCOORD_0":1},"mode":1,"material":0,"indices":2}]},{"name":"Object_1","primitives":[{"attributes":{"NORMAL":6,"POSITION":5,"TANGENT":7,"TEXCOORD_0":8},"mode":4,"material":0,"indices":3}]},{"name":"Object_2","primitives":[{"attributes":{"NORMAL":10,"POSITION":9,"TANGENT":11,"TEXCOORD_0":12},"mode":4,"material":0,"indices":4}]}],"nodes":[{"name":"Sketchfab_model","rotation":[-0.7071067811865475,0,0,0.7071067811865476],"children":[1]},{"name":"dhungedhara.obj.cleaner.materialmerger.gles","children":[2,3,4]},{"name":"Object_2","mesh":0},{"name":"Object_3","mesh":1},{"name":"Object_4","mesh":2}],"scenes":[{"name":"Sketchfab_Scene","nodes":[0]}],"scene":0,"extensionsUsed":["KHR_materials_ior","KHR_materials_specular"]}