<?xml version="1.0" encoding="iso-8859-1"?>
<!-- Uploaded to: SVG Repo, www.svgrepo.com, Generator: SVG Repo Mixer Tools -->
<svg height="800px" width="800px" version="1.1" id="Layer_1" xmlns="http://www.w3.org/2000/svg" xmlns:xlink="http://www.w3.org/1999/xlink" 
	 viewBox="0 0 512 512" xml:space="preserve">
<path style="fill:#A66342;" d="M217.043,294.668h-66.783c-9.223,0-16.696,7.473-16.696,16.696v183.94
	c0,9.223,7.473,16.696,16.696,16.696h66.783c9.223,0,16.696-7.473,16.696-16.696v-183.94
	C233.739,302.141,226.266,294.668,217.043,294.668z"/>
<path style="fill:#995B3D;" d="M217.043,294.668h-33.391V512h33.391c9.223,0,16.696-7.473,16.696-16.696v-183.94
	C233.739,302.141,226.266,294.668,217.043,294.668z"/>
<path style="fill:#7BCC29;" d="M495.304,512H16.696C7.473,512,0,504.527,0,495.304s7.473-16.696,16.696-16.696h478.609
	c9.217,0,16.696,7.473,16.696,16.696S504.521,512,495.304,512z"/>
<path style="fill:#A66342;" d="M371.978,428.535l-54.761,54.985c-3.214,3.269-4.826,7.531-4.84,11.784h40.216l42.536-43.06
	l43.148,43.06h40.356c-0.014-4.253-1.653-8.515-4.922-11.784l-54.65-54.984l54.65-54.984c4.137-4.138,5.662-9.865,4.586-15.152
	h-36.646l-46.522,46.427L348.985,358.4h-36.276c-1.058,5.287,0.441,11.014,4.509,15.152L371.978,428.535z"/>
<path style="fill:#995B3D;" d="M478.634,495.304c-0.014-4.253-1.653-8.515-4.922-11.784l-54.65-54.984l54.65-54.984
	c4.137-4.138,5.662-9.865,4.586-15.152h-36.646l-46.522,46.427v47.416l43.148,43.061H478.634z"/>
<path style="fill:#FFDE33;" d="M495.304,378.449H294.957c-9.223,0-16.696-7.473-16.696-16.696c0-9.223,7.473-16.696,16.696-16.696
	h200.348c9.223,0,16.696,7.473,16.696,16.696C512,370.976,504.527,378.449,495.304,378.449z"/>
<path style="fill:#FFBC33;" d="M495.304,345.058H395.13v33.391h100.174c9.223,0,16.696-7.473,16.696-16.696
	C512,352.531,504.527,345.058,495.304,345.058z"/>
<path style="fill:#6EB825;" d="M495.304,478.609H183.652V512h311.652c9.217,0,16.696-7.473,16.696-16.696
	S504.521,478.609,495.304,478.609z"/>
<path style="fill:#7BCC29;" d="M300.41,111.861C297.739,49.753,246.428,0,183.652,0C120.988,0,69.788,49.53,66.894,111.527
	C25.824,131.005,0,173.635,0,217.043c0,64.445,52.424,116.87,116.87,116.87c23.93,0,47.082-7.457,66.783-21.37
	c19.701,13.913,42.852,21.37,66.783,21.37c64.445,0,116.87-52.424,116.87-116.87C367.304,171.854,340.925,131.005,300.41,111.861z"
	/>
<path style="fill:#6EB825;" d="M367.304,217.043c0,64.445-52.424,116.87-116.87,116.87c-23.93,0-47.082-7.457-66.783-21.37V0
	c62.776,0,114.087,49.753,116.758,111.861C340.925,131.005,367.304,171.854,367.304,217.043z"/>
</svg>