<?xml version="1.0" encoding="iso-8859-1"?>
<!-- Uploaded to: SVG Repo, www.svgrepo.com, Generator: SVG Repo Mixer Tools -->
<svg height="800px" width="800px" version="1.1" id="Layer_1" xmlns="http://www.w3.org/2000/svg" xmlns:xlink="http://www.w3.org/1999/xlink" 
	 viewBox="0 0 512 512" xml:space="preserve">
<g>
	<path style="fill:#33A854;" d="M144.773,511.505h366.978V279.19c-89.208-23.433-166.357,12.564-170.798,14.999l-84.951-1.311
		L147.941,507.614"/>
	<path style="fill:#33A854;" d="M0.272,425.815V201.751c0,0,127.703-14.952,223.747,82.839l36.178,36.178L59.291,444.252
		L0.789,425.815"/>
</g>
<g>
	<path style="fill:#9CE0B8;" d="M9.477,201.116c16.736,25.193,65.72,111.548,51.951,241.668l76.801-47.205
		C121.42,293.817,75.428,227.288,56.417,203.379C35.748,200.736,19.178,200.729,9.477,201.116z"/>
	<path style="fill:#9CE0B8;" d="M194.296,361.119l65.65-40.35l-36.178-36.178c-32.48-33.07-68.575-53.235-102.133-65.457
		C141.633,236.937,175.55,277.904,194.296,361.119z"/>
	<path style="fill:#9CE0B8;" d="M357.248,287.333c-31.632,28.499-92.042,97.558-114.902,224.083h90.387
		c2.346-134.948,64.471-216.286,83.511-238.1C391.116,276.462,370.538,282.538,357.248,287.333z"/>
	<path style="fill:#9CE0B8;" d="M511.751,279.101c-18.223-4.787-35.942-7.092-52.642-7.711
		c-8.541,28.446-30.894,115.571-27.941,240.026h80.583V279.101z"/>
</g>
<path style="fill:#8EC1ED;" d="M124.449,99.019c22.359,0,40.485-18.126,40.485-40.485s-18.126-40.485-40.485-40.485
	c-11.393,0-21.679,4.713-29.037,12.288C87.92,12.515,70.299,0,49.755,0C22.412,0,0.246,22.166,0.246,49.51s22.166,49.51,49.51,49.51
	H124.449z"/>
<path style="opacity:0.23;fill:#3C66B1;enable-background:new    ;" d="M143.373,22.744c0.908,3.368,1.401,6.906,1.401,10.561
	c0,22.359-18.126,40.485-40.485,40.485H29.595c-9.748,0-18.83-2.829-26.492-7.693C9.925,85.28,28.231,99.019,49.755,99.019h74.694
	c22.359,0,40.485-18.126,40.485-40.485C164.934,43.012,156.195,29.538,143.373,22.744z"/>
<circle style="fill:#FFCD00;" cx="418.848" cy="94.994" r="92.906"/>
<path style="fill:#DDB200;" d="M467.488,15.831c8.712,14.149,13.743,30.807,13.743,48.643c0,51.31-41.596,92.906-92.906,92.906
	c-17.836,0-34.494-5.029-48.643-13.743c16.351,26.557,45.688,44.263,79.163,44.263c51.31,0,92.906-41.596,92.906-92.906
	C511.751,61.518,494.044,32.183,467.488,15.831z"/>
<path style="fill:#8EC1ED;" d="M340.952,294.189c0,0-100.189-28.977-161.383,8.539c-59.578,36.526-36.019,57.093-178.782,123.087
	v85.691h155.384c0,0,69.882-72.805,83.991-137.052C258.161,292.495,340.952,294.189,340.952,294.189z"/>
<path style="opacity:0.23;fill:#3C66B1;enable-background:new    ;" d="M290.42,285.535c-24.855,8.359-55.465,27.995-65.586,74.083
	c-7.655,34.855-31.725,72.23-52.146,99.132c-18.117,23.865-46.316,37.921-76.279,37.921H0.789V512h155.384
	c0,0,69.882-72.805,83.991-137.052c17.998-81.958,100.789-80.265,100.789-80.265S319.514,288.487,290.42,285.535z"/>
<g>
	<path style="opacity:0.26;fill:#266659;enable-background:new    ;" d="M204.477,450.977
		C204.171,451.302,204.477,450.977,204.477,450.977l-6.567,8.325c-19.348,24.525-48.957,38.715-80.195,38.432L0.52,496.669v14.836
		V512h155.384c0,0,0.163-0.17,0.469-0.495h355.11v-0.089V279.19v-0.089c-18.223-4.787-35.942-7.092-52.642-7.711
		c-0.008,0.028-0.018,0.06-0.026,0.088c-4.648-0.172-9.207-0.199-13.687-0.127l-12.595,44.845
		c-16.455,58.595-64.53,102.912-124.268,114.554L204.477,450.977z"/>
	<path style="opacity:0.17;fill:#266659;enable-background:new    ;" d="M0.789,299.075v125.638c0,0,59.33-23.85,81.754-42.079
		C82.543,382.634,0.789,373.263,0.789,299.075z"/>
</g>
</svg>